Coordinates
version=1
nRows=8
nColumns=40
inDegrees=yes

Units are S.I. units (second, meters, Newtons, ...)
Angles are in degrees.

endheader
time	pelvis_tilt	pelvis_list	pelvis_rotation	pelvis_tx	pelvis_ty	pelvis_tz	hip_flexion_r	hip_adduction_r	hip_rotation_r	knee_angle_r	knee_angle_r_beta	ankle_angle_r	subtalar_angle_r	mtp_angle_r	hip_flexion_l	hip_adduction_l	hip_rotation_l	knee_angle_l	knee_angle_l_beta	ankle_angle_l	subtalar_angle_l	mtp_angle_l	lumbar_extension	lumbar_bending	lumbar_rotation	arm_flex_r	arm_add_r	arm_rot_r	elbow_flex_r	pro_sup_r	wrist_flex_r	wrist_dev_r	arm_flex_l	arm_add_l	arm_rot_l	elbow_flex_l	pro_sup_l	wrist_flex_l	wrist_dev_l
     40.84000000	     -1.26262202	     -5.01719054	      3.45423873	      1.09033937	      0.93021164	      0.47874800	     11.35504379	      2.47222121	    -13.18256444	     18.87737638	     18.87737638	     10.68372557	     -1.81027597	     -5.86177303	     29.66802991	    -12.81796154	      3.48697598	     61.17212032	     61.17212032	      8.98710311	    -18.61952309	     13.22150397	     -9.75559533	      5.63993743	      3.19338800	     14.26658757	    -18.60423259	     -1.79959805	     58.57235838	     45.56574510	      0.00000000	      0.00000000	      6.14343070	     -9.71857981	     -8.51080326	     34.39796864	     45.17567038	      0.00000000	      0.00000000
     40.85364286	     -1.33807476	     -5.05798317	      3.95132046	      1.08936249	      0.93024291	      0.47941895	     11.06682555	      2.57836777	    -13.45286840	     18.83948799	     18.83948799	     10.92551252	     -2.08435554	     -5.90792458	     30.73567969	    -12.89424764	      3.18053323	     58.72837238	     58.72837238	      9.44145280	    -18.74121331	     13.40566923	     -9.60902674	      5.56567394	      3.64940898	     15.65851962	    -18.97601632	     -2.01369693	     59.35388058	     45.55395938	      0.00000000	      0.00000000	      5.14536815	     -9.24732304	     -8.44599669	     33.88499212	     45.15432985	      0.00000000	      0.00000000
     40.86728571	     -1.25576912	     -4.82059763	      4.43017258	      1.08841348	      0.93065257	      0.47991300	     10.41599835	      2.48998792	    -13.36972566	     18.44770028	     18.44770028	     11.14928923	     -2.66017943	     -5.78856185	     31.33624412	    -12.64267471	      2.61869159	     55.90636736	     55.90636736	      9.76663264	    -18.95004566	     13.83170875	     -9.85093871	      5.25046390	      2.38930296	     17.80378855	    -18.26847053	     -2.10411041	     62.64118054	     45.45278735	      0.00000000	      0.00000000	      3.51595174	     -9.21606753	     -8.33720208	     31.98483821	     45.13279368	      0.00000000	      0.00000000
     40.88092857	     -1.30295831	     -4.73005479	      4.89930197	      1.08740040	      0.93070528	      0.48031364	     10.02407319	      2.49683065	    -13.44158176	     18.25547129	     18.25547129	     11.37121310	     -3.10320327	     -5.76831435	     31.95977598	    -12.43888102	      2.15252272	     52.89064383	     52.89064383	     10.10281609	    -19.03600226	     14.30550150	     -9.88109073	      5.10500224	      2.19276452	     19.32594748	    -18.35693338	     -2.13925859	     65.16957014	     45.37468872	      0.00000000	      0.00000000	      2.43069218	     -8.88138190	     -8.25336287	     30.58166266	     45.12150441	      0.00000000	      0.00000000
     40.89457143	     -1.33393494	     -4.67231612	      5.35319013	      1.08636254	      0.93073493	      0.48062602	      9.65592715	      2.51905975	    -13.59073248	     18.13088828	     18.13088828	     11.58369751	     -3.49537175	     -5.76824636	     32.40057385	    -12.18843216	      1.71819519	     49.65306042	     49.65306042	     10.38890442	    -19.02051071	     14.79230222	     -9.92845396	      4.99696702	      2.05261777	     20.69988096	    -18.46311089	     -2.20739644	     67.73325130	     45.29725402	      0.00000000	      0.00000000	      1.47764007	     -8.56136083	     -8.16675742	     29.20881219	     45.11234991	      0.00000000	      0.00000000
     40.90821429	     -1.42262121	     -4.64794467	      5.77992575	      1.08527818	      0.93054216	      0.48071623	      9.36844487	      2.55492438	    -13.71728293	     18.01864954	     18.01864954	     11.79462864	     -3.81819694	     -5.82329296	     32.77914933	    -11.82603013	      1.45026248	     46.31066128	     46.31066128	     10.58270241	    -18.98351007	     14.91588651	    -10.00571271	      4.95705757	      3.01958388	     20.54344113	    -19.67649004	     -2.65096455	     73.18352637	     45.13991359	      0.00000000	      0.00000000	      1.73587337	     -7.94871824	     -8.03269350	     26.33486313	     45.18801684	      0.00000000	      0.00000000
     40.92185714	     -1.51475684	     -4.54479168	      6.19169558	      1.08414291	      0.93041454	      0.48058518	      9.08974673	      2.47583466	    -13.89509393	     17.93036044	     17.93036044	     12.03010796	     -4.03345672	     -5.84465056	     32.98583652	    -11.27757099	      1.26583804	     42.80538339	     42.80538339	     10.65376727	    -18.85003500	     15.07615641	    -10.01800815	      4.81246587	      2.75414430	     22.17729251	    -19.38180346	     -3.18124098	     75.06913728	     45.10626534	      0.00000000	      0.00000000	      0.66851797	     -7.68950787	     -7.96600473	     25.43394539	     45.17978566	      0.00000000	      0.00000000
     40.93550000	     -1.64612099	     -4.42005321	      6.56695619	      1.08298406	      0.93023347	      0.48028690	      8.85936820	      2.35446752	    -14.07046521	     17.85649599	     17.85649599	     12.27390734	     -4.19644779	     -5.87800896	     33.09865147	    -10.61515809	      1.23937975	     39.23300932	     39.23300932	     10.58105603	    -18.58583970	     15.07697275	     -9.99484141	      4.62697024	      2.67383161	     23.59240200	    -19.26375819	     -3.52828512	     76.99801711	     45.06359350	      0.00000000	      0.00000000	     -0.29197417	     -7.45935618	     -7.93215441	     24.75368836	     45.17324664	      0.00000000	      0.00000000
